<?xml version="1.0" encoding="iso-8859-1"?>
<!-- Generator: Adobe Illustrator 16.0.0, SVG Export Plug-In . SVG Version: 6.00 Build 0)  -->
<!DOCTYPE svg PUBLIC "-//W3C//DTD SVG 1.1//EN" "http://www.w3.org/Graphics/SVG/1.1/DTD/svg11.dtd">
<svg version="1.1" id="Capa_1" xmlns="http://www.w3.org/2000/svg" xmlns:xlink="http://www.w3.org/1999/xlink" x="0px" y="0px"
	 width="542.104px" height="542.104px" viewBox="0 0 542.104 542.104" style="enable-background:new 0 0 542.104 542.104;"
	 xml:space="preserve">
<g>
	<path d="M294.344,441.336c9.283-4.916,13.023-16.252,8.066-25.595c0,0-9.234-17.354-14.322-26.785
		c-2.59,12.206-9.723,16.313-26.553,30.886l7.283,13.708C272.115,439.711,284.912,446.396,294.344,441.336z M245.466,419.284
		l25.901-22.434c8.697-7.616,8.261-20.584,0.809-27.778c-7.181-7.289-18.598-7.208-25.711-0.999l-25.908,22.501
		c-7.983,6.896-8.629,18.884-1.775,26.806C224.747,424.18,236.674,426.791,245.466,419.284z M336.43,419.046
		c9.881-5.29,12.703-16.729,8.078-25.67l-29.301-54.713l8.33-5.243l32.592,61.513c4.863,9.16,16.15,12.642,25.527,7.854
		c9.758-5.264,12.873-16.605,8.064-25.663l-33.883-63.812l8.629-5.175c0,0,22.412,43.133,30.484,58.501
		c4.99,9.302,16.537,12.641,25.541,7.785c9.465-5.004,13-16.285,8.057-25.656c-25.377-48.062-19.861-37.95-30.205-54.903
		c-30.545-42.418-75.078-71.536-118.932-107.854l-77.935,36.598c-16.096,7.398-33.034-0.299-39.712-14.076
		c-7.29-15.177-0.871-32.871,13.892-40.018l18.646-8.752l-59.895-0.17l-63.451,86.829l41.351,38.025
		c1.741-3.828,4.318-7.262,7.535-10.057l46.43-40.317c12.376-10.574,31.117-9.5,42.079,2.979c5.406,6.297,7.983,14.035,7.364,22.005
		c10.833-2.448,21.842,1.428,28.941,9.533c8.704,10.037,9.819,24.147,3.155,35.048c6.942,1.121,13.185,4.583,17.761,9.866
		c10.213,11.825,9.663,28.894-0.299,39.78c6.827-1.007,14.899,2.604,18.7,8.452c0,0,19.762,35.891,26.941,49.504
		C314.152,417.421,327.039,424.064,336.43,419.046z M214.254,383.312l41.344-35.843c7.772-6.685,8.752-18.646,1.687-26.799
		c-6.698-7.792-18.673-8.812-26.602-1.89c-0.966,0.843-41.915,36.291-42.806,37.223c-6.576,7.045-6.677,17.973-0.224,25.426
		C193.766,388.514,205.843,390.615,214.254,383.312z M177.942,351.746l56.712-49.157c7.888-6.759,8.772-18.714,1.768-26.799
		c-6.977-7.962-18.815-8.69-26.608-1.903l-51.782,44.805c-12.002,7.575-13.654,23.175-6.684,31.178
		C157.141,356.67,169.354,359.261,177.942,351.746z M125.283,309.464c-7.038-8.14-6.018-20.128,1.7-26.799l46.444-40.324
		c7.779-6.637,19.74-6.031,26.683,1.904c6.97,8.112,6.229,19.896-1.7,26.799l-46.512,40.324
		C144.622,317.739,132.688,317.923,125.283,309.464z M281.057,173.151l-84.244,39.542c-9.915,4.631-20.842,0.088-25.221-8.928
		c-4.719-9.86-0.415-20.93,8.812-25.425l84.783-39.766c11.784-4.298,23.548-6.236,38.013-6.236
		c29.145,0,88.984,15.688,116.551,23.515l49.518,84.449l-28.396,17.897c-6.801,6.521-12.363,24.909-27.254,34.694
		C383.133,251.582,329.84,208.518,281.057,173.151z M427.42,138.566l52.062-31.817l62.621,104.74l-54.109,30.349L427.42,138.566z
		 M0,205.376L73.154,98.983l53.815,43.146l-71.468,99.158L0,205.376z"/>
</g>
<g>
</g>
<g>
</g>
<g>
</g>
<g>
</g>
<g>
</g>
<g>
</g>
<g>
</g>
<g>
</g>
<g>
</g>
<g>
</g>
<g>
</g>
<g>
</g>
<g>
</g>
<g>
</g>
<g>
</g>
</svg>
