<?xml version="1.0" encoding="iso-8859-1"?>
<!-- Generator: Adobe Illustrator 16.0.0, SVG Export Plug-In . SVG Version: 6.00 Build 0)  -->
<!DOCTYPE svg PUBLIC "-//W3C//DTD SVG 1.1//EN" "http://www.w3.org/Graphics/SVG/1.1/DTD/svg11.dtd">
<svg version="1.1" id="Capa_1" xmlns="http://www.w3.org/2000/svg" xmlns:xlink="http://www.w3.org/1999/xlink" x="0px" y="0px"
	 width="967.567px" height="967.567px" viewBox="0 0 967.567 967.567" style="enable-background:new 0 0 967.567 967.567;"
	 xml:space="preserve">
<g>
	<g>
		<path d="M967.567,266.234c0-34.5-28-62.5-62.5-62.5H717.967l-35.8-124.4c-3.4-11.8-14.2-19.9-26.4-19.9h-155c-11,0-20,9-20,20v15
			c0,11,9,20,20,20h134.301l25.699,89.2h-89.699c-34.5,0-62.5,28-62.5,62.5v214h55v-214c0-4.1,3.399-7.5,7.5-7.5h105.5l25.6,89
			h-65.8c-16.601,0-30,13.4-30,30v102.5h161.399c15.9,0,30.601,6.4,41.4,18c10.8,11.602,16.4,27.4,15.2,43.301
			c-7.9,107.6-55.8,207.6-134.9,281.5c-8.8,8.199-17.899,16-27.3,23.4c-10.7,8.5-21.8,16.4-33.3,23.699
			c-18.5,11.9-37.9,22.4-57.9,31.301l0,0h334c34.5,0,62.5-28,62.5-62.5V266.234H967.567z M759.367,347.734l-25.601-89h171.301
			c4.1,0,7.5,3.4,7.5,7.5v81.5H759.367z"/>
		<path d="M397.267,822.534c39.101,0,76.601-7,111.2-19.699c19.3-7.1,37.7-16,55-26.4c15.2-9.199,29.5-19.6,42.9-31.1
			c66.6-57.301,108.6-141.4,108.6-235.1h-635.4C79.567,682.735,221.867,822.534,397.267,822.534z M563.567,580.633l22.8,17.201
			c12.8,9.6,15.3,27.799,5.7,40.6c-6.801,9.1-18,13-28.5,11c-4.301-0.801-8.4-2.6-12.101-5.301c-7.5-5.6-11.399-14.299-11.5-23
			l-0.3-58.5L563.567,580.633z M385.867,612.235l26-52.4l26,52.4c7.1,14.299,1.2,31.699-13.101,38.799
			c-14.3,7.1-31.699,1.201-38.8-13.1C381.767,629.633,382.067,620.034,385.867,612.235z M237.367,597.834l46.7-35.201l-0.3,58.5
			c-0.1,16-13.1,28.9-29.1,28.9c-16-0.1-28.9-13.1-28.9-29.1C225.867,611.534,230.467,603.133,237.367,597.834z"/>
		<path d="M397.267,908.133c46.4,0,90.9-7.898,132.301-22.5c27.1-9.5,52.8-21.898,76.8-36.799c1.3-0.801,2.6-1.6,3.899-2.5
			c103.601-65.6,174.801-177.701,184.2-307c1.2-15.9-11.5-29.5-27.5-29.5h-16.8c-1.6,114.5-57.8,215.9-143.7,279.199
			c-13.6,10-27.899,19.1-42.899,27.1c-17.5,9.4-35.9,17.301-55,23.602c-35,11.6-72.4,17.898-111.301,17.898
			c-193.2,0-350.1-155.299-352.8-347.799h-16.9c-16,0-28.6,13.5-27.5,29.5C15.167,745.534,187.267,908.133,397.267,908.133z"/>
	</g>
</g>
<g>
</g>
<g>
</g>
<g>
</g>
<g>
</g>
<g>
</g>
<g>
</g>
<g>
</g>
<g>
</g>
<g>
</g>
<g>
</g>
<g>
</g>
<g>
</g>
<g>
</g>
<g>
</g>
<g>
</g>
</svg>
