<?xml version="1.0" encoding="iso-8859-1"?>
<!-- Generator: Adobe Illustrator 16.0.0, SVG Export Plug-In . SVG Version: 6.00 Build 0)  -->
<!DOCTYPE svg PUBLIC "-//W3C//DTD SVG 1.1//EN" "http://www.w3.org/Graphics/SVG/1.1/DTD/svg11.dtd">
<svg version="1.1" id="Capa_1" xmlns="http://www.w3.org/2000/svg" xmlns:xlink="http://www.w3.org/1999/xlink" x="0px" y="0px"
	 width="470.381px" height="470.381px" viewBox="0 0 470.381 470.381" style="enable-background:new 0 0 470.381 470.381;"
	 xml:space="preserve">
<g>
	<path d="M462.158,96.555L294.402,47.959c-1.033-0.3-2.098-0.45-3.17-0.45H179.155c-1.074,0-2.142,0.15-3.171,0.45L8.224,96.555
		C3.355,97.968,0,102.425,0,107.499v97.198c0,3.511,1.619,6.833,4.396,8.991c2.771,2.159,6.376,2.927,9.787,2.059l73.95-18.65
		v214.38c0,6.293,5.103,11.395,11.396,11.395h271.329c6.293,0,11.396-5.102,11.396-11.395V197.096l73.943,18.65
		c3.41,0.868,7.021,0.1,9.793-2.059s4.391-5.48,4.391-8.991v-97.198C470.381,102.424,467.031,97.968,462.158,96.555z
		 M283.236,70.298c-3.311,23.586-23.564,41.808-48.045,41.808c-24.482,0-44.734-18.222-48.045-41.808H283.236z M447.592,190.069
		l-73.945-18.65c-3.406-0.868-7.023-0.095-9.793,2.059c-2.771,2.159-4.391,5.48-4.391,8.991v217.614H110.924V182.468
		c0-3.511-1.619-6.833-4.396-8.991c-2.771-2.153-6.376-2.927-9.787-2.059l-73.951,18.65v-74.007l142.032-41.146
		c5.481,33.945,34.903,59.98,70.368,59.98c35.47,0,64.886-26.035,70.369-59.98l142.033,41.147V190.069z"/>
</g>
<g>
</g>
<g>
</g>
<g>
</g>
<g>
</g>
<g>
</g>
<g>
</g>
<g>
</g>
<g>
</g>
<g>
</g>
<g>
</g>
<g>
</g>
<g>
</g>
<g>
</g>
<g>
</g>
<g>
</g>
</svg>
