<?xml version="1.0" encoding="iso-8859-1"?>
<!-- Generator: Adobe Illustrator 16.0.0, SVG Export Plug-In . SVG Version: 6.00 Build 0)  -->
<!DOCTYPE svg PUBLIC "-//W3C//DTD SVG 1.1//EN" "http://www.w3.org/Graphics/SVG/1.1/DTD/svg11.dtd">
<svg version="1.1" id="Capa_1" xmlns="http://www.w3.org/2000/svg" xmlns:xlink="http://www.w3.org/1999/xlink" x="0px" y="0px"
	 width="498.306px" height="498.306px" viewBox="0 0 498.306 498.306" style="enable-background:new 0 0 498.306 498.306;"
	 xml:space="preserve">
<g>
	<g>
		<path d="M68.107,497.729c0.48,0.377,1.071,0.577,1.677,0.577h41.224c0.517,0,1.01-0.138,1.441-0.41l23.024-14.499h235.166
			c1.418,0,2.587-1.091,2.688-2.509l0.871-13.155c0.096-1.438-0.961-2.698-2.393-2.845l-159.271-17.04l35.746-46.866l52.154,0.851
			c0.729-0.016,1.69-0.399,2.21-1.103l16.215-22.189l63.477-26.042l-3.822,31.413c-0.031,0.199-0.031,0.397-0.011,0.587
			l6.929,69.429l-7.569,16c-0.305,0.641-0.336,1.396-0.1,2.069l3.507,9.647c0.384,1.072,1.396,1.774,2.524,1.774h75.43
			c0.898,0,1.737-0.452,2.235-1.208c0.499-0.756,0.584-1.69,0.247-2.529l-4.378-10.521c-0.419-1.008-1.4-1.657-2.488-1.657h-18.95
			l-22.998-26.296l10.421-124.294c0.078-0.74-0.163-1.454-0.662-2.007l-7.024-7.895c-0.509-0.572-1.238-0.907-2.005-0.907h-90.547
			l-10.231-100.624l10.421-41.649c0.073-0.294,0.1-0.591,0.068-0.903l-7.812-83.313l7.444-12.403
			c0.541-0.887,0.52-1.997-0.063-2.858l-19.732-30.027V2.688c0-1.483-1.202-2.688-2.688-2.688h-12.278
			c-1.396,0-2.558,1.066-2.678,2.452l-4.373,49.122c-0.036,0.304-0.005,0.601,0.068,0.892l6.915,27.644l-8.627,105.188l-3.218,1.919
			c-0.623,0.37-1.064,1.005-1.233,1.714l-3.548,16.068l-13.774,121.389l-17.883,0.787c-0.548,0.022-1.052,0.21-1.483,0.532
			L135.72,404.011c-0.656,0.483-1.053,1.244-1.086,2.058l-0.785,21.812l-8.627-0.551l0.753-15.776
			c0.036-0.761-0.247-1.495-0.785-2.036c-0.544-0.535-1.302-0.803-2.042-0.776l-31.806,1.773l-30.699,4.39
			c-0.548,0.083-1.039,0.314-1.452,0.683l-21.926,20.178c-0.555,0.504-0.866,1.229-0.866,1.974v33.324c0,0.812,0.37,1.584,1.01,2.11
			L68.107,497.729z"/>
	</g>
</g>
<g>
</g>
<g>
</g>
<g>
</g>
<g>
</g>
<g>
</g>
<g>
</g>
<g>
</g>
<g>
</g>
<g>
</g>
<g>
</g>
<g>
</g>
<g>
</g>
<g>
</g>
<g>
</g>
<g>
</g>
</svg>
